<svg width="46" height="81" viewBox="0 0 46 81" fill="none" xmlns="http://www.w3.org/2000/svg">
<g filter="url(#filter0_d_68_1066)">
<path fill-rule="evenodd" clip-rule="evenodd" d="M25.3543 2.09274L20.9344 2.01641L20.9343 2.02704L20.5488 2.02014C18.1498 1.82499 11.8747 3.11998 11.8747 3.11998C9.39676 4.03619 8.22181 7.16134 7.66793 9.74458C6.92223 10.3648 6.42038 11.39 6.39677 12.5636L6.25776 19.5115C6.23893 20.4441 6.52806 21.2991 7.01096 21.9326L6.99049 22.9485L6.92821 26.0366L4.02131 27.148L3.99985 28.2007L6.89224 27.8332L6.52106 46.2901C6.01315 46.9073 5.68909 47.7483 5.66989 48.6836L5.32846 65.6608C5.30749 66.7015 5.6692 67.6421 6.2546 68.2929C6.51714 70.3535 7.2565 73.5114 9.33925 73.7566L21.9461 73.9738L34.5517 74.1906C36.643 74.0175 37.5076 70.8868 37.8535 68.8373C38.4656 68.2067 38.8649 67.2798 38.8859 66.2387L39.2273 49.2619C39.246 48.3262 38.9566 47.4743 38.4737 46.8408L38.847 28.262L41.4842 28.6897L41.5057 27.6374L38.882 26.5288L38.9426 23.4992L38.9812 22.4663C39.4804 21.8472 39.7971 21.0166 39.8156 20.0893L39.9546 13.1414C39.9735 12.196 39.6772 11.3306 39.1837 10.6943C38.7745 8.0283 37.7504 4.57307 35.1796 3.52102C35.1796 3.52102 28.9617 2.01148 26.5566 2.1238L25.3542 2.10292L25.3543 2.09274Z" fill="white"/>
</g>
<rect x="16.0815" y="72.2256" width="4.68783" height="11.7196" rx="1" transform="rotate(-90 16.0815 72.2256)" fill="#242E42"/>
<rect x="9.0498" y="72.2236" width="4.68783" height="9.37566" rx="1" transform="rotate(-90 9.0498 72.2236)" fill="#F2C94C"/>
<rect x="18.4253" y="4.25098" width="2.34391" height="11.7196" rx="1" transform="rotate(-90 18.4253 4.25098)" fill="#242E42"/>
<rect x="25.4575" y="72.2246" width="4.68783" height="9.37566" rx="1" transform="rotate(-90 25.4575 72.2246)" fill="#F2C94C"/>
<path fill-rule="evenodd" clip-rule="evenodd" d="M24.4152 19.9248L24.4143 19.9438C29.0416 20.3048 32.0219 21.0862 33.933 21.9937C36.0386 22.9942 36.8469 24.1455 37.1278 25.0463C37.1323 25.0596 37.1342 25.0729 37.1383 25.0848C37.1896 25.2556 37.2224 25.4153 37.2401 25.5662C37.3183 26.1879 37.1628 26.6007 37.1628 26.6007L32.7369 37.0664C31.7818 35.5629 25.1539 34.7616 22.6487 34.5076C20.1289 34.4992 13.4542 34.6081 12.3405 36.0023L9.08879 25.1361C9.08879 25.1361 8.97878 24.7092 9.12607 24.0994C9.15925 23.9543 9.2088 23.803 9.27517 23.641C9.28063 23.6269 9.28699 23.6096 9.29335 23.5941C9.67339 22.7278 10.6039 21.6672 12.8078 20.8898C14.8084 20.188 17.8564 19.7212 22.4955 19.8438L22.4964 19.8248C22.8233 19.8407 23.1419 19.8584 23.4556 19.8761C23.7688 19.8911 24.0879 19.9062 24.4152 19.9248Z" fill="#242E42"/>
<path fill-rule="evenodd" clip-rule="evenodd" d="M12.2182 51.841L25.3795 52.5277L33.3366 52.9432L33.8353 52.9689C36.4164 55.1312 36.28 60.0209 35.8514 63.2461L8.90836 61.8404C8.83654 58.5891 9.23794 53.7127 12.0409 51.8317L12.2182 51.841Z" fill="#242E42"/>
<path fill-rule="evenodd" clip-rule="evenodd" d="M6.70557 53.0274C6.70557 50.3249 6.70557 30.033 6.70557 30.033C6.70557 30.033 11.3934 39.9502 11.3934 42.6404C11.3934 45.3307 6.70557 55.7299 6.70557 53.0274Z" fill="#242E42"/>
<path fill-rule="evenodd" clip-rule="evenodd" d="M39.5208 53.016C39.5208 50.3135 39.5208 30.0216 39.5208 30.0216C39.5208 30.0216 34.833 40.2764 34.833 42.9667C34.833 45.6569 39.5208 55.7185 39.5208 53.016Z" fill="#242E42"/>
<defs>
<filter id="filter0_d_68_1066" x="0" y="0" width="45.5059" height="80.1904" filterUnits="userSpaceOnUse" color-interpolation-filters="sRGB">
<feFlood flood-opacity="0" result="BackgroundImageFix"/>
<feColorMatrix in="SourceAlpha" type="matrix" values="0 0 0 0 0 0 0 0 0 0 0 0 0 0 0 0 0 0 127 0" result="hardAlpha"/>
<feOffset dy="2"/>
<feGaussianBlur stdDeviation="2"/>
<feColorMatrix type="matrix" values="0 0 0 0 0 0 0 0 0 0 0 0 0 0 0 0 0 0 0.2 0"/>
<feBlend mode="normal" in2="BackgroundImageFix" result="effect1_dropShadow_68_1066"/>
<feBlend mode="normal" in="SourceGraphic" in2="effect1_dropShadow_68_1066" result="shape"/>
</filter>
</defs>
</svg>
